<?xml version="1.0" standalone="no"?><!DOCTYPE svg PUBLIC "-//W3C//DTD SVG 1.1//EN" "http://www.w3.org/Graphics/SVG/1.1/DTD/svg11.dtd"><svg t="1680156867514" class="icon" viewBox="0 0 1024 1024" version="1.1" xmlns="http://www.w3.org/2000/svg" p-id="15443" xmlns:xlink="http://www.w3.org/1999/xlink" width="64" height="64"><path d="M1002.788571 198.217143L825.782857 21.211429a73.142857 73.142857 0 0 0-51.2-21.211429H73.142857a73.142857 73.142857 0 0 0-73.142857 73.142857v877.714286a73.142857 73.142857 0 0 0 73.142857 73.142857h877.714286a73.142857 73.142857 0 0 0 73.142857-73.142857V249.417143a73.142857 73.142857 0 0 0-21.211429-51.2zM731.428571 373.76a65.097143 65.097143 0 0 1-65.097142 65.097143H211.382857A65.097143 65.097143 0 0 1 146.285714 373.76V211.382857A65.097143 65.097143 0 0 1 211.382857 146.285714h454.948572a65.097143 65.097143 0 0 1 65.097142 65.097143z" p-id="15444" fill="#222222"></path><path d="M585.142857 219.428571h73.142857v146.285715H585.142857z" p-id="15445" fill="#222222"></path></svg>